<svg width="407" height="407" viewBox="0 0 407 407" fill="none" xmlns="http://www.w3.org/2000/svg">
<rect x="46" y="46" width="316" height="316" rx="47" fill="#1321A0"/>
<rect x="66" y="56" width="276" height="276" rx="30" fill="#1965F9"/>
<ellipse cx="203.5" cy="193.5" rx="116.5" ry="120.5" fill="#408CFF"/>
<g filter="url(#filter0_d_1_13)">
<path d="M214.654 165.52C214.654 160.2 212.564 156.59 208.384 154.69C204.33 152.663 197.49 151.65 187.864 151.65V180.72C193.817 180.72 198.63 180.277 202.304 179.39C206.104 178.503 209.08 176.983 211.234 174.83C213.514 172.55 214.654 169.447 214.654 165.52ZM217.124 216.25C217.124 212.07 216.047 208.84 213.894 206.56C211.74 204.28 208.637 202.697 204.584 201.81C200.53 200.797 194.957 200.29 187.864 200.29V233.16C197.744 233.16 205.09 231.957 209.904 229.55C214.717 227.017 217.124 222.583 217.124 216.25ZM240.494 191.36C252.274 198.327 258.164 207.637 258.164 219.29C258.164 224.357 257.151 229.233 255.124 233.92C253.224 238.48 250.311 242.66 246.384 246.46C242.584 250.26 237.517 253.3 231.184 255.58C224.85 257.733 217.694 258.81 209.714 258.81H165.634C157.907 258.81 152.334 256.847 148.914 252.92C145.621 248.993 143.974 241.963 143.974 231.83V151.46C143.974 147.153 144.734 143.353 146.254 140.06C147.774 136.767 150.181 134.107 153.474 132.08C156.894 130.053 160.947 129.04 165.634 129.04H209.144C221.81 129.167 232.324 132.65 240.684 139.49C249.171 146.203 253.414 154.88 253.414 165.52C253.414 168.94 253.097 171.98 252.464 174.64C251.957 177.173 251.134 179.453 249.994 181.48C248.854 183.507 247.524 185.28 246.004 186.8C244.484 188.32 242.647 189.84 240.494 191.36Z" fill="white"/>
<line x1="15" y1="-15" x2="36.8652" y2="-15" transform="matrix(-0.436331 0.899786 0.899786 0.436331 191.407 246)" stroke="white" stroke-width="30" stroke-linecap="round"/>
<line x1="15" y1="-15" x2="46.3514" y2="-15" transform="matrix(-0.436331 0.899786 0.899786 0.436331 254.407 108)" stroke="white" stroke-width="30" stroke-linecap="round"/>
</g>
<defs>
<filter id="filter0_d_1_13" x="143.974" y="99.9484" width="124.19" height="197.681" filterUnits="userSpaceOnUse" color-interpolation-filters="sRGB">
<feFlood flood-opacity="0" result="BackgroundImageFix"/>
<feColorMatrix in="SourceAlpha" type="matrix" values="0 0 0 0 0 0 0 0 0 0 0 0 0 0 0 0 0 0 127 0" result="hardAlpha"/>
<feOffset dx="10" dy="10"/>
<feComposite in2="hardAlpha" operator="out"/>
<feColorMatrix type="matrix" values="0 0 0 0 0.0965974 0 0 0 0 0.395254 0 0 0 0 0.975 0 0 0 1 0"/>
<feBlend mode="normal" in2="BackgroundImageFix" result="effect1_dropShadow_1_13"/>
<feBlend mode="normal" in="SourceGraphic" in2="effect1_dropShadow_1_13" result="shape"/>
</filter>
</defs>
</svg>
