<svg width="408" height="407" viewBox="0 0 408 407" fill="none" xmlns="http://www.w3.org/2000/svg">
<rect x="0.499855" y="203.5" width="287.793" height="287.793" rx="47" transform="rotate(-45 0.499855 203.5)" fill="#850000"/>
<rect x="27.2233" y="195" width="250" height="250" rx="30" transform="rotate(-45 27.2233 195)" fill="#FF2121"/>
<ellipse cx="203.5" cy="194.5" rx="104.5" ry="107.5" fill="#FF5A50"/>
<g filter="url(#filter0_d_2_20)">
<path d="M179.011 214.19C179.011 217.863 180.087 220.777 182.241 222.93C184.394 225.083 186.801 226.16 189.461 226.16C192.627 226.16 194.907 225.337 196.301 223.69C197.694 221.917 198.391 218.75 198.391 214.19V144.65C198.391 136.923 200.037 131.223 203.331 127.55C206.751 123.75 212.324 121.85 220.051 121.85C226.891 121.85 232.274 123.433 236.201 126.6C240.127 129.767 242.091 135.213 242.091 142.94V213.43C242.091 227.363 237.847 237.497 229.361 243.83C221.001 250.163 208.651 253.33 192.311 253.33C187.117 253.33 182.304 252.95 177.871 252.19C173.437 251.43 169.511 250.417 166.091 249.15C162.671 247.757 159.504 246.173 156.591 244.4C153.804 242.627 151.397 240.663 149.371 238.51C147.471 236.357 145.761 234.14 144.241 231.86C142.721 229.453 141.517 227.047 140.631 224.64C139.871 222.107 139.237 219.763 138.731 217.61C138.351 215.33 138.161 213.05 138.161 210.77C138.161 202.283 139.554 196.52 142.341 193.48C145.254 190.313 150.891 188.73 159.251 188.73C165.964 188.73 171.094 189.933 174.641 192.34C178.314 194.747 180.151 198.04 180.151 202.22C180.151 203.487 179.961 205.513 179.581 208.3C179.201 211.087 179.011 213.05 179.011 214.19Z" fill="white"/>
<line x1="169.664" y1="248.012" x2="161.012" y2="266.045" stroke="white" stroke-width="30" stroke-linecap="round"/>
<line x1="234.138" y1="114.012" x2="225.487" y2="132.045" stroke="white" stroke-width="30" stroke-linecap="round"/>
</g>
<defs>
<filter id="filter0_d_2_20" x="138.161" y="99.009" width="120.981" height="192.039" filterUnits="userSpaceOnUse" color-interpolation-filters="sRGB">
<feFlood flood-opacity="0" result="BackgroundImageFix"/>
<feColorMatrix in="SourceAlpha" type="matrix" values="0 0 0 0 0 0 0 0 0 0 0 0 0 0 0 0 0 0 127 0" result="hardAlpha"/>
<feOffset dx="10" dy="10"/>
<feComposite in2="hardAlpha" operator="out"/>
<feColorMatrix type="matrix" values="0 0 0 0 1 0 0 0 0 0.129167 0 0 0 0 0.129167 0 0 0 1 0"/>
<feBlend mode="normal" in2="BackgroundImageFix" result="effect1_dropShadow_2_20"/>
<feBlend mode="normal" in="SourceGraphic" in2="effect1_dropShadow_2_20" result="shape"/>
</filter>
</defs>
</svg>
