<svg width="886" height="886" viewBox="0 0 886 886" fill="none" xmlns="http://www.w3.org/2000/svg">
<path d="M516.481 259.46C572.303 203.395 663.036 203.296 718.98 259.24V259.24C774.838 315.098 774.838 405.662 718.98 461.519L617.62 562.879L415.998 360.38L516.481 259.46Z" fill="#BA165B"/>
<path fill-rule="evenodd" clip-rule="evenodd" d="M617.62 562.879L415.998 360.38L415.62 765L617.62 562.879Z" fill="#BA165B"/>
<path d="M213.499 562.879L415.62 765L415.998 360.38L213.499 562.879Z" fill="#D50D31"/>
<path d="M213.499 562.879L415.998 360.38L314.749 259.13C258.83 203.212 168.168 203.212 112.25 259.13V259.13C56.331 315.049 56.331 405.711 112.25 461.629L213.499 562.879Z" fill="#D40D31"/>
<path d="M415.945 311.536L339.144 234.735C269.752 165.343 157.246 165.343 87.8544 234.735C18.4627 304.127 18.4628 416.633 87.8545 486.025L189.104 587.274L391.225 789.395L415.627 813.797L440.022 789.388L642.015 587.274L642.023 587.267L743.375 485.915C812.706 416.584 812.706 304.176 743.375 234.845C673.938 165.408 561.32 165.53 492.033 235.118L415.945 311.536Z" stroke="#151515" stroke-width="69"/>
<path d="M571.362 204.579C627.184 148.514 717.917 148.416 773.86 204.359V204.359C829.718 260.217 829.718 350.781 773.86 406.639L672.501 507.998L470.879 305.499L571.362 204.579Z" fill="#FD3535"/>
<path fill-rule="evenodd" clip-rule="evenodd" d="M672.501 507.998L470.879 305.499L470.501 710.119L672.501 507.998Z" fill="#FD3535"/>
<path d="M268.38 507.998L470.501 710.119L470.879 305.499L268.38 507.998Z" fill="#D50D31"/>
<path d="M268.38 507.998L470.879 305.499L369.629 204.25C313.711 148.331 223.049 148.331 167.13 204.25V204.25C111.212 260.168 111.212 350.83 167.13 406.749L268.38 507.998Z" fill="#D40D31"/>
<path d="M470.826 256.656L394.025 179.854C324.633 110.463 212.127 110.463 142.735 179.854C73.3433 249.246 73.3434 361.752 142.735 431.144L243.985 532.394L446.105 734.514L470.508 758.917L494.903 734.507L696.896 532.394L696.903 532.386L798.256 431.034C867.587 361.703 867.586 249.295 798.255 179.964C728.818 110.527 616.2 110.649 546.914 180.237L470.826 256.656Z" stroke="#151515" stroke-width="69"/>
<path d="M516.481 259.46C572.303 203.395 663.036 203.296 718.98 259.24V259.24C774.838 315.098 774.838 405.662 718.98 461.519L617.62 562.879L415.998 360.38L516.481 259.46Z" fill="#BA165B"/>
<path fill-rule="evenodd" clip-rule="evenodd" d="M617.62 562.879L415.998 360.38L415.62 765L617.62 562.879Z" fill="#BA165B"/>
<path d="M213.499 562.879L415.62 765L415.998 360.38L213.499 562.879Z" fill="#BA165B"/>
<path d="M213.499 562.879L415.998 360.38L314.749 259.13C258.83 203.212 168.168 203.212 112.25 259.13V259.13C56.331 315.049 56.331 405.711 112.25 461.629L213.499 562.879Z" fill="#BA165B"/>
<path d="M617.927 477.186L501.932 360.44L617.927 243.694L734.426 360.44L617.927 477.186Z" fill="#BA165B"/>
<path d="M571.362 204.579C627.184 148.514 717.917 148.416 773.86 204.359V204.359C829.718 260.217 829.718 350.781 773.86 406.639L672.501 507.998L470.879 305.499L571.362 204.579Z" fill="#FF68DE"/>
<path fill-rule="evenodd" clip-rule="evenodd" d="M672.501 507.998L470.879 305.499L470.501 710.119L672.501 507.998Z" fill="#FF68DE"/>
<path d="M268.38 507.998L470.501 710.119L470.879 305.499L268.38 507.998Z" fill="#EE27C2"/>
<path d="M268.38 507.998L470.879 305.499L369.629 204.25C313.711 148.331 223.049 148.331 167.13 204.25V204.25C111.212 260.168 111.212 350.83 167.13 406.749L268.38 507.998Z" fill="#EE27C2"/>
<path d="M655.111 404.495L574.32 323.18C564.633 313.43 564.633 297.689 574.32 287.939L655.111 206.624C664.872 196.8 680.76 196.783 690.542 206.586L771.685 287.9C781.424 297.659 781.424 313.46 771.685 323.218L690.542 404.533C680.76 414.336 664.872 414.319 655.111 404.495Z" fill="#FF9CE9"/>
<path d="M514.12 313.118C509.319 311.831 504.384 314.68 503.097 319.481L468.051 450.277C466.258 456.966 457.728 459.302 451.787 455.745C447.235 453.02 442.255 450.854 436.883 449.415C404.512 440.741 371.267 459.934 362.594 492.306C353.92 524.677 373.113 557.921 405.485 566.595C437.856 575.269 471.101 556.075 479.774 523.704L516.693 385.922C517.98 381.12 522.915 378.271 527.716 379.558L568.92 390.598C573.721 391.885 578.656 389.035 579.942 384.234L590.983 343.03C592.269 338.229 589.42 333.294 584.619 332.008L514.12 313.118Z" fill="#151515"/>
</svg>
