<svg width="1026" height="1026" viewBox="0 0 1026 1026" fill="none" xmlns="http://www.w3.org/2000/svg">
<path d="M93 250.311C93 223.629 114.645 202 141.345 202H667.101C693.801 202 715.446 223.629 715.446 250.311V775.689C715.446 802.371 693.801 824 667.101 824H141.345C114.645 824 93 802.371 93 775.689V250.311Z" fill="#0055D4"/>
<path d="M310.554 250.311C310.554 223.629 332.199 202 358.899 202H884.655C911.355 202 933 223.629 933 250.311V775.689C933 802.371 911.355 824 884.655 824H358.899C332.199 824 310.554 802.371 310.554 775.689V250.311Z" fill="#4E95FF"/>
<path d="M358.899 850H667.101H884.655C925.697 850 959 816.748 959 775.689V250.311C959 209.252 925.697 176 884.655 176H667.101H358.899H141.345C100.303 176 67 209.252 67 250.311V775.689C67 816.748 100.303 850 141.345 850H358.899Z" stroke="#151515" stroke-width="52"/>
<rect x="107" y="216" width="594" height="594" rx="34" fill="#0044AA" stroke="#3281F7" stroke-width="28"/>
<rect x="109" y="218" width="590" height="590" rx="32" fill="#0044AA" stroke="#3281F7" stroke-width="32"/>
<path d="M359 218H885C902.673 218 917 232.327 917 250V513V776C917 793.673 902.673 808 885 808H359C341.327 808 327 793.673 327 776V513V250C327 232.327 341.327 218 359 218Z" fill="#3281F7" stroke="#64A2FF" stroke-width="32"/>
<path d="M677.289 341.174C672.488 339.887 667.553 342.737 666.266 347.538L617.784 528.476C615.992 535.165 607.511 537.487 601.803 533.567C594.665 528.664 586.639 524.817 577.812 522.452C534.937 510.964 490.905 536.386 479.416 579.261C467.928 622.136 493.35 666.168 536.225 677.656C579.1 689.144 623.132 663.722 634.62 620.847L684.274 435.536C685.561 430.735 690.496 427.886 695.297 429.172L755.512 445.307C760.313 446.593 765.248 443.744 766.535 438.943L782.669 378.728C783.956 373.927 781.106 368.991 776.305 367.705L677.289 341.174Z" fill="#151515"/>
</svg>
