<svg width="1026" height="1026" viewBox="0 0 1026 1026" fill="none" xmlns="http://www.w3.org/2000/svg">
<path d="M252 220.5C252 220.5 206 473.333 187 578L252 639L407.5 531C358.333 447 252 220.5 252 220.5Z" fill="#5C15A3"/>
<path d="M772 220.5C772 220.5 818 473.333 837 578L772 639L616.5 531C665.667 447 772 220.5 772 220.5Z" fill="#36006B"/>
<path d="M511.5 284C408.463 284 309.647 309.391 236.789 354.587C163.931 399.784 123 461.083 123 525C123 588.917 163.931 650.216 236.789 695.413C309.647 740.609 408.463 766 511.5 766L511.5 284Z" fill="#4F006B"/>
<path d="M511.5 284C614.537 284 713.353 309.391 786.211 354.587C859.069 399.784 900 461.083 900 525C900 588.917 859.069 650.216 786.211 695.413C713.353 740.609 614.537 766 511.5 766L511.5 284Z" fill="#741695"/>
<path d="M252 220.5C232.323 216.92 232.323 216.921 232.322 216.923L232.321 216.932L232.315 216.966L232.29 217.104L232.19 217.649L231.802 219.785L230.309 227.989L224.839 258.061C220.508 281.867 214.647 314.089 208.2 349.534C142.468 395.942 103 457.816 103 525C103 598.125 149.758 664.96 226.246 712.408C302.857 759.932 405.495 786 511.5 786C617.505 786 720.143 759.932 796.754 712.408C873.242 664.96 920 598.125 920 525C920 458.208 880.991 396.664 815.948 350.348C809.443 314.583 803.525 282.049 799.161 258.061L793.691 227.989L792.198 219.785L791.81 217.649L791.71 217.104L791.685 216.966L791.679 216.932L791.677 216.923C791.677 216.921 791.677 216.92 772 220.5M252 220.5C270.104 212.001 270.104 212.001 270.105 212.003L270.108 212.01L270.122 212.04L270.179 212.16L270.406 212.643C270.607 213.07 270.907 213.708 271.301 214.544C272.088 216.216 273.25 218.682 274.748 221.853C277.744 228.194 282.081 237.351 287.44 248.604C293.922 262.216 301.897 278.89 310.801 297.352C371.738 275.572 440.871 264 511.5 264C582.458 264 651.908 275.68 713.052 297.658C722.015 279.074 730.042 262.292 736.56 248.604C741.919 237.351 746.256 228.194 749.252 221.853C750.75 218.682 751.912 216.216 752.699 214.544C753.093 213.708 753.393 213.07 753.594 212.643L753.821 212.16L753.878 212.04L753.892 212.01L753.895 212.003C753.896 212.001 753.896 212.001 772 220.5M252 220.5L232.323 216.92L243.52 155.375L270.104 212.001L252 220.5ZM772 220.5L753.896 212.001L780.48 155.375L791.677 216.92L772 220.5Z" stroke="#151515" stroke-width="40"/>
<path d="M512.5 148V903L93.5 742L52 250L280.5 551L512.5 148Z" fill="#5C15A3"/>
<path d="M512.5 148V903L931.5 742L973 250L744.5 551L512.5 148Z" fill="#7E2AD1"/>
<path d="M957.07 237.907L746.795 514.9L529.833 138.022L512.5 107.913L495.167 138.022L278.205 514.9L67.9299 237.907L26.2813 183.044L32.0708 251.681L73.5708 743.681L74.6244 756.173L86.3264 760.669L505.326 921.669L512.5 924.426L519.674 921.669L938.674 760.669L950.376 756.173L951.429 743.681L992.929 251.681L998.719 183.044L957.07 237.907Z" stroke="#151515" stroke-width="40"/>
<path d="M86 657.515L512.299 513V637.569L86 776.485V657.515Z" fill="#B4B4B4"/>
<path d="M937 657.515L512.299 513V637.569L937 776.485V657.515Z" fill="#E3E3E3"/>
<path d="M86 776.485L512.299 921V796.431L86 657.515V776.485Z" fill="#CECECE"/>
<path d="M937 776.485L512.299 921V796.431L937 657.515V776.485Z" fill="white"/>
<path d="M512.299 513L86 657.515M512.299 513V637.569M512.299 513L937 657.515M86 657.515V776.485M86 657.515L512.299 796.431M86 776.485L512.299 637.569M86 776.485L512.299 921M512.299 637.569L937 776.485M937 657.515V776.485M937 657.515L512.299 796.431M937 776.485L512.299 921M512.299 921V796.431" stroke="#151515" stroke-width="80"/>
<path d="M86 657.797L513 513V637.813L86 777V657.797Z" fill="#36006B"/>
<path d="M937 657.797L513 513V637.813L937 777V657.797Z" fill="#5C15A3"/>
<path d="M252 220.5C252 220.5 206 473.333 187 578L252 639L407.5 531C358.333 447 252 220.5 252 220.5Z" fill="#5C15A3"/>
<path d="M772 220.5C772 220.5 818 473.333 837 578L772 639L616.5 531C665.667 447 772 220.5 772 220.5Z" fill="#36006B"/>
<path d="M511.5 284C408.463 284 309.647 309.391 236.789 354.587C163.931 399.784 123 461.083 123 525C123 588.917 163.931 650.216 236.789 695.413C309.647 740.609 408.463 766 511.5 766L511.5 525L511.5 284Z" fill="#4F006B"/>
<path d="M511.5 284C614.537 284 713.353 309.391 786.211 354.587C859.069 399.784 900 461.083 900 525C900 588.917 859.069 650.216 786.211 695.413C713.353 740.609 614.537 766 511.5 766L511.5 525L511.5 284Z" fill="#741695"/>
<path d="M512.5 148V903L931.5 742L973 250L744.5 551L512.5 148Z" fill="#7E2AD1"/>
<path d="M512.5 148V903L93.5 742L52 250L280.5 551L512.5 148Z" fill="#5C15A3"/>
<circle cx="725.5" cy="533.5" r="78.5" fill="#741695"/>
<circle cx="296.5" cy="533.5" r="78.5" fill="#4F006B"/>
<path d="M86 776.752L513 921V796.66L86 658V776.752Z" fill="#7E2AD1"/>
<path d="M937 776.752L513 921V796.66L937 658V776.752Z" fill="#9146DD"/>
</svg>
